<svg width="344" height="643" viewBox="0 0 344 643" fill="none" xmlns="http://www.w3.org/2000/svg">
<path fill-rule="evenodd" clip-rule="evenodd" d="M135.5 39.1903H16.5C8.72718 39.1903 2.5 45.346 2.5 52.8493V627.341C2.5 634.844 8.72719 641 16.5 641H327.5C335.273 641 341.5 634.844 341.5 627.341V52.8493C341.5 45.346 335.273 39.1903 327.5 39.1903H207.5V37.1903C207.5 17.7956 191.423 2 171.5 2C151.577 2 135.5 17.7956 135.5 37.1903V39.1903ZM209.5 37.1903C209.5 16.6506 192.487 0 171.5 0C150.513 0 133.5 16.6506 133.5 37.1903H16.5C7.66344 37.1903 0.5 44.2011 0.5 52.8493V627.341C0.5 635.989 7.66345 643 16.5 643H327.5C336.337 643 343.5 635.989 343.5 627.341V52.8493C343.5 44.2011 336.337 37.1903 327.5 37.1903H209.5Z" fill="#F82225"/>
</svg>
