<svg width="48" height="48" viewBox="0 0 48 48" fill="none" xmlns="http://www.w3.org/2000/svg">
<g id="gift">
<path id="Vector" opacity="0.9" d="M39.36 24V39.2001C39.36 41.4092 37.5692 43.2 35.36 43.2H12.6401C10.4309 43.2 8.64005 41.4092 8.64005 39.2V24M24 43.2V14.4M24 14.4H15.36C14.087 14.4 12.8661 13.8943 11.9659 12.9942C11.0658 12.094 10.56 10.8731 10.56 9.60005C10.56 8.32701 11.0658 7.10611 11.9659 6.20594C12.8661 5.30576 14.087 4.80005 15.36 4.80005C22.08 4.80005 24 14.4 24 14.4ZM24 14.4H32.6401C33.9131 14.4 35.134 13.8943 36.0342 12.9942C36.9343 12.094 37.44 10.8731 37.44 9.60005C37.44 8.32701 36.9343 7.10611 36.0342 6.20594C35.134 5.30576 33.9131 4.80005 32.6401 4.80005C25.9201 4.80005 24 14.4 24 14.4ZM8.80005 24H39.2C41.4092 24 43.2 22.2092 43.2 20.0001V18.4C43.2 16.1909 41.4092 14.4 39.2001 14.4H8.80005C6.59091 14.4 4.80005 16.1909 4.80005 18.4V20C4.80005 22.2092 6.59091 24 8.80005 24Z" stroke="white" stroke-width="2" stroke-linecap="round" stroke-linejoin="round"/>
</g>
</svg>
